<?xml version="1.0" encoding="UTF-8" standalone="no"?>
<!-- Created with Inkscape (http://www.inkscape.org/) -->

<svg
   xmlns:dc="http://purl.org/dc/elements/1.1/"
   xmlns:cc="http://creativecommons.org/ns#"
   xmlns:rdf="http://www.w3.org/1999/02/22-rdf-syntax-ns#"
   xmlns:svg="http://www.w3.org/2000/svg"
   xmlns="http://www.w3.org/2000/svg"
   xmlns:sodipodi="http://sodipodi.sourceforge.net/DTD/sodipodi-0.dtd"
   xmlns:inkscape="http://www.inkscape.org/namespaces/inkscape"
   width="150.63846mm"
   height="114.689mm"
   viewBox="0 0 533.75832 406.37836"
   id="svg2"
   version="1.1"
   inkscape:version="0.91 r13725"
   sodipodi:docname="fish.svg"
   inkscape:export-filename="/mnt/edata/edata/lsecol2018/img/fish.png"
   inkscape:export-xdpi="126.36465"
   inkscape:export-ydpi="126.36465">
  <defs
     id="defs4" />
  <sodipodi:namedview
     id="base"
     pagecolor="#000000"
     bordercolor="#666666"
     borderopacity="1.0"
     inkscape:pageopacity="0"
     inkscape:pageshadow="2"
     inkscape:zoom="1.4"
     inkscape:cx="269.79068"
     inkscape:cy="200.98621"
     inkscape:document-units="px"
     inkscape:current-layer="layer1"
     showgrid="false"
     inkscape:window-width="1678"
     inkscape:window-height="1012"
     inkscape:window-x="0"
     inkscape:window-y="18"
     inkscape:window-maximized="0"
     fit-margin-top="5"
     fit-margin-left="5"
     fit-margin-right="5"
     fit-margin-bottom="5" />
  <metadata
     id="metadata7">
    <rdf:RDF>
      <cc:Work
         rdf:about="">
        <dc:format>image/svg+xml</dc:format>
        <dc:type
           rdf:resource="http://purl.org/dc/dcmitype/StillImage" />
        <dc:title></dc:title>
      </cc:Work>
    </rdf:RDF>
  </metadata>
  <g
     inkscape:label="Layer 1"
     inkscape:groupmode="layer"
     id="layer1"
     transform="translate(-132.75025,-358.67185)">
    <path
       style="color:#000000;font-style:normal;font-variant:normal;font-weight:normal;font-stretch:normal;font-size:medium;line-height:normal;font-family:sans-serif;text-indent:0;text-align:start;text-decoration:none;text-decoration-line:none;text-decoration-style:solid;text-decoration-color:#000000;letter-spacing:normal;word-spacing:normal;text-transform:none;direction:ltr;block-progression:tb;writing-mode:lr-tb;baseline-shift:baseline;text-anchor:start;white-space:normal;clip-rule:nonzero;display:inline;overflow:visible;visibility:visible;opacity:1;isolation:auto;mix-blend-mode:normal;color-interpolation:sRGB;color-interpolation-filters:linearRGB;solid-color:#000000;solid-opacity:1;fill:none;fill-opacity:1;fill-rule:evenodd;stroke:#0000ff;stroke-width:4;stroke-linecap:butt;stroke-linejoin:miter;stroke-miterlimit:4;stroke-dasharray:none;stroke-dashoffset:0;stroke-opacity:1;color-rendering:auto;image-rendering:auto;shape-rendering:auto;text-rendering:auto;enable-background:accumulate"
       d="m 540.91295,454.10854 c -8.39254,12.22316 -26.07107,42.524 -36.5254,32.86188 -4.4474,-4.10616 -11.70967,-13.6643 -21.25976,-26.01562 -9.5501,-12.35133 -21.67117,-28.31965 -43.2207,-40.66211 -20.36019,-11.66127 -49.54804,-15.6244 -76.16407,-8.94141 -50.97998,8.40126 -86.09979,45.37884 -104.39062,79.04102 -18.62466,34.27655 -27.87076,67.97125 -37.64258,88.60351 l -1.31836,2.78516 -0.96875,2.92578 c -6.51814,19.72019 -17.33763,38.45293 -28.02148,48.69141 -18.52933,12.96366 -24.15337,10.82623 -40.63477,11.38476 m -0.11719,99.99414 c 43.50244,3.98593 83.58565,-13.92262 109.94141,-39.17969 26.524,-25.41829 42.56186,-56.63119 52.90039,-87.02343 14.39201,-31.16713 23.22642,-61.10959 33.72852,-80.4375 12.92944,-25.07593 25.68297,-32.66004 43.29101,-30.78711 6.63519,0.70577 9.09651,9.767 13.50781,14.77343 11.07743,12.57189 17.06363,24.03771 32.53321,38.32032 15.46957,14.2826 40.19753,28.50381 68.83398,29.49218 l 1.60547,0.0547 1.60547,-0.0469 c 53.85572,-1.60133 96.3924,-37.08242 116.30664,-75.93164 19.91424,-38.84923 24.62895,-81.19489 20.53125,-119.78516 l 0,2e-5"
       id="path3356"
       inkscape:connector-curvature="0"
       sodipodi:nodetypes="ccsscsccccccsccaascccscc" />
    <path
       sodipodi:type="star"
       style="fill:none;stroke:#008000;stroke-width:6.07622623;stroke-miterlimit:4;stroke-dasharray:none"
       id="path4165"
       sodipodi:sides="8"
       sodipodi:cx="297.85715"
       sodipodi:cy="626.64795"
       sodipodi:r1="85.143936"
       sodipodi:r2="63.857952"
       sodipodi:arg1="0.64853462"
       sodipodi:arg2="1.0412337"
       inkscape:flatsided="false"
       inkscape:rounded="0.29"
       inkscape:randomized="0.116"
       d="m 370.46446,683.30019 c -6.19765,8.94567 -25.76644,-3.86398 -34.41122,1.31462 -8.64478,5.17859 -9.8774,26.46869 -19.2501,29.3774 -9.3727,2.90872 -16.53319,-18.93875 -25.93702,-22.74473 -9.40383,-3.80599 -44.08432,4.2782 -52.84073,-1.83856 -8.7564,-6.11676 12.50215,-13.63185 7.05639,-22.16002 -5.44575,-8.52817 -30.39749,-23.77103 -32.04319,-33.60247 -1.64569,-9.83144 18.82942,-11.49427 21.65657,-20.92347 2.82715,-9.42921 -5.15726,-26.38832 -0.40176,-34.94718 4.7555,-8.55886 14.01677,-6.87347 23.55071,-10.40041 9.53394,-3.52695 9.57136,-25.05583 19.27043,-27.67095 9.69907,-2.61512 26.45308,22.06144 36.47224,24.28054 10.01917,2.21911 32.13676,-16.68773 41.22028,-10.52114 9.08353,6.16659 2.88337,41.10845 7.2941,49.91106 4.41073,8.80262 27.96164,2.3492 28.55289,12.75002 0.59126,10.40083 -21.43149,18.2476 -23.02609,27.9031 -1.59461,9.65551 9.03415,30.32651 2.8365,39.27219 z"
       inkscape:transform-center-x="5.0187508"
       inkscape:transform-center-y="-0.35009237"
       transform="matrix(0.6583671,0,0,0.6582396,113.46535,229.81539)" />
    <path
       inkscape:connector-curvature="0"
       id="path4175"
       d="m 459.28571,463.79078 c -8.05323,-2.04345 -15.56858,1.69174 -15.84038,10.20047 -5.75658,2.56017 -14.05003,6.10644 -8.9002,13.63481 1.34545,10.11216 -9.52754,6.79252 -14.98874,9.46316 -5.48681,3.46307 0.26682,13.55962 -8.84211,13.13015"
       style="fill:none;fill-rule:evenodd;stroke:#0000ff;stroke-width:4;stroke-linecap:butt;stroke-linejoin:miter;stroke-miterlimit:4;stroke-dasharray:none;stroke-opacity:1" />
    <path
       inkscape:connector-curvature="0"
       id="path4177"
       d="m 476.42857,465.93363 c -8.05323,-2.04345 -15.56858,1.69174 -15.84038,10.20047 -5.75658,2.56017 -14.05003,6.10644 -8.9002,13.63481 1.34545,10.11216 -9.52754,6.79252 -14.98874,9.46316 -5.48681,3.46307 0.26682,13.55962 -8.84211,13.13015"
       style="fill:none;fill-rule:evenodd;stroke:#0000ff;stroke-width:4;stroke-linecap:butt;stroke-linejoin:miter;stroke-miterlimit:4;stroke-dasharray:none;stroke-opacity:1" />
    <path
       style="fill:none;fill-rule:evenodd;stroke:#0000ff;stroke-width:4;stroke-linecap:butt;stroke-linejoin:miter;stroke-miterlimit:4;stroke-dasharray:none;stroke-opacity:1"
       d="m 481.42857,486.64792 c -8.05323,-2.04345 -15.56858,1.69174 -15.84038,10.20047 -5.75658,2.56017 -14.05003,6.10644 -8.9002,13.63481 1.34545,10.11216 -9.52754,6.79252 -14.98874,9.46316 -5.48681,3.46307 0.26682,13.55962 -8.84211,13.13015"
       id="path4167"
       inkscape:connector-curvature="0" />
    <circle
       r="1.5"
       cy="415.93362"
       cx="622.14288"
       style="fill:#000000;stroke:#00ff00;stroke-width:3.5;stroke-miterlimit:4;stroke-dasharray:none"
       id="circle4181" />
    <circle
       r="1.5"
       cy="430.75507"
       cx="605"
       style="fill:#000000;stroke:#00ff00;stroke-width:3.5;stroke-miterlimit:4;stroke-dasharray:none"
       id="circle4183" />
    <circle
       r="1.5"
       cy="428.79077"
       cx="617.67859"
       style="fill:#000000;stroke:#00ff00;stroke-width:3.5;stroke-miterlimit:4;stroke-dasharray:none"
       id="circle4185" />
    <circle
       r="1.5"
       cy="426.64792"
       cx="631.42859"
       style="fill:#000000;stroke:#00ff00;stroke-width:3.5;stroke-miterlimit:4;stroke-dasharray:none"
       id="circle4187" />
    <circle
       r="1.5"
       cy="410.04077"
       cx="635.53571"
       style="fill:#000000;stroke:#00ff00;stroke-width:3.5;stroke-miterlimit:4;stroke-dasharray:none"
       id="circle4189" />
    <circle
       r="1.5"
       cy="438.96936"
       cx="636.07141"
       style="fill:#000000;stroke:#00ff00;stroke-width:3.5;stroke-miterlimit:4;stroke-dasharray:none"
       id="circle4191" />
    <circle
       r="1.5"
       cy="441.46936"
       cx="620"
       style="fill:#000000;stroke:#00ff00;stroke-width:3.5;stroke-miterlimit:4;stroke-dasharray:none"
       id="circle4193" />
    <circle
       r="1.5"
       cy="442.00507"
       cx="605.35712"
       style="fill:#000000;stroke:#00ff00;stroke-width:3.5;stroke-miterlimit:4;stroke-dasharray:none"
       id="circle4195" />
    <circle
       r="1.5"
       cy="450.57651"
       cx="630.17859"
       style="fill:#000000;stroke:#00ff00;stroke-width:3.5;stroke-miterlimit:4;stroke-dasharray:none"
       id="circle4197" />
    <circle
       r="1.5"
       cy="458.25507"
       cx="609.28571"
       style="fill:#000000;stroke:#00ff00;stroke-width:3.5;stroke-miterlimit:4;stroke-dasharray:none"
       id="circle4199" />
    <circle
       r="1.5"
       cy="456.82648"
       cx="619.10718"
       style="fill:#000000;stroke:#00ff00;stroke-width:3.5;stroke-miterlimit:4;stroke-dasharray:none"
       id="circle4201" />
    <circle
       id="path4179"
       style="fill:#000000;stroke:#00ff00;stroke-width:3.5;stroke-miterlimit:4;stroke-dasharray:none"
       cx="633.21429"
       cy="462.71936"
       r="1.5" />
    <path
       style="fill:none;fill-rule:evenodd;stroke:#ffffff;stroke-width:2;stroke-linecap:butt;stroke-linejoin:miter;stroke-miterlimit:4;stroke-dasharray:8, 8;stroke-dashoffset:0;stroke-opacity:1"
       d="M 332.85714,438.07649 C 420.24623,428.99154 435.71429,559.50506 490,558.79078 544.28571,558.07649 623.57143,531.64792 629.28571,481.64792 635,431.64792 625,425.93363 600,418.79078 c -25,-7.14286 -19.28571,35 -34.28571,56.42857 -15,21.42857 -21.42858,50.71428 -80.71429,48.57143 C 425.71429,521.64792 447.85714,445.93363 427.85714,442.3622 396.21483,436.71179 300,475.93363 276.42857,531.64792 252.85714,587.3622 238.57143,638.79078 255.71429,647.3622 c 17.14285,8.57143 47.85714,-5.71428 58.57142,-32.85714 C 325,587.3622 310,553.07649 307.14286,508.79078 c -2.85715,-44.28572 6.8073,-68.74872 25.71428,-70.71429 z"
       id="path4203"
       inkscape:connector-curvature="0"
       sodipodi:nodetypes="ssssssssssss" />
    <g
       transform="matrix(0,0.54704189,0.54885422,0,368.86111,438.50885)"
       inkscape:label="Layer 1"
       id="layer1-6"
       style="fill:#ffffff;stroke:none;stroke-width:4.37998343;stroke-miterlimit:4;stroke-dasharray:none">
      <flowRoot
         transform="translate(-435.45,-151.2)"
         style="font-size:40px;line-height:125%;font-family:Sans;letter-spacing:0px;word-spacing:0px;fill:#ffffff;stroke:none;stroke-width:4.37998343;stroke-miterlimit:4;stroke-dasharray:none"
         xml:space="preserve"
         id="flowRoot5209"><flowRegion
           id="flowRegion5211"
           style="stroke-width:4.37998343"><rect
             height="86.873001"
             x="-62.629002"
             width="123.24"
             y="42.209999"
             id="rect5213"
             style="fill:#ffffff;stroke:none;stroke-width:4.37998343;stroke-miterlimit:4;stroke-dasharray:none" /></flowRegion><flowPara
           id="flowPara5215"
           style="stroke-width:4.37998343;fill:#ffffff;stroke:none">rhetorical raptorrhetorical raptorR</flowPara></flowRoot>      <path
         d="m 159.64,341.87 c -7.9932,-1.4322 -14.715,-5.0867 -21.947,-11.932 -8.0041,-7.5765 -14.2,-17.211 -16.685,-25.944 -0.84884,-2.983 -0.96117,-3.1259 -1.6922,-2.1522 -1.0751,1.432 -3.8401,6.8833 -5.3014,10.452 l -1.209,2.9523 -0.34338,-2.6833 c -0.18886,-1.4758 -0.57401,-3.5307 -0.85588,-4.5665 -0.28186,-1.0358 -0.57451,-2.7306 -0.6503,-3.7664 -0.10058,-1.3744 -0.36844,-1.8459 -0.99149,-1.7453 -1.0251,0.1656 -2.1056,-1.989 -2.1056,-4.1986 0,-1.0536 -0.27188,-1.5888 -0.80708,-1.5888 -0.44389,0 -0.80708,-0.18798 -0.80708,-0.41773 0,-1.0084 8.5697,-9.2423 10.761,-10.34 1.3317,-0.66673 2.4786,-1.26 2.5487,-1.3184 0.0701,-0.0583 0.50929,-2.1191 0.976,-4.5794 1.7299,-9.1192 5.9718,-19.408 10.787,-26.163 4.0504,-5.6826 10.797,-11.686 15.896,-14.145 6.7057,-3.2344 21.851,-6.8747 23.159,-5.5666 0.44243,0.44243 -0.13562,2.3215 -2.1924,7.1268 -1.5363,3.5893 -2.9359,7.2391 -3.1102,8.1107 -0.30869,1.5435 -0.27796,1.5699 1.1793,1.0159 3.6424,-1.3848 4.5498,-2.3022 5.4499,-5.5102 1.0386,-3.7017 1.6036,-4.2257 2.3733,-2.2014 0.42502,1.1179 0.36134,2.4141 -0.25198,5.1299 -0.98306,4.3532 -2.4946,7.4832 -5.0162,10.388 -2.1651,2.4938 -7.5973,10.993 -9.8593,15.426 l -1.5566,3.0505 1.5486,3.4154 c 2.4834,5.477 3.6713,10.633 3.3409,14.5 -0.0414,0.48416 -0.86212,1.2909 -1.8239,1.7929 -4.136,2.1585 -4.708,2.5236 -4.708,3.0058 0,0.27978 -0.63121,0.5087 -1.4027,0.5087 -0.96009,0 -1.3143,-0.23039 -1.1225,-0.73015 0.15411,-0.40157 0.41364,-3.0044 0.57675,-5.7841 l 0.29655,-5.0539 -0.82197,2.9593 c -0.45209,1.6276 -0.95423,5.9859 -1.1159,9.685 l -0.29389,6.7257 5.5737,4.0278 c 4.1779,3.0192 5.3098,4.0787 4.5198,4.231 -0.57962,0.11174 -2.1277,1.0231 -3.4402,2.0253 -2.7167,2.0744 -3.0607,2.1657 -3.5318,0.93802 -0.18659,-0.48625 -0.45525,-0.7681 -0.59701,-0.62634 -0.14177,0.14177 0.21619,1.6353 0.79545,3.319 3.4976,10.166 9.454,15.775 16.436,15.478 4.0974,-0.17417 5.7798,-4.2223 3.6039,-8.6717 -0.50482,-1.0323 -1.5827,-2.1956 -2.3954,-2.5851 -1.4741,-0.7065 -1.9914,-2.4206 -0.92869,-3.0774 0.30186,-0.18656 2.6801,-0.08 5.285,0.23666 6.0967,0.74128 9.8151,0.0797 15.17,-2.6992 4.6252,-2.4004 5.3613,-2.5392 5.3613,-1.0109 0,5.0684 -9.2269,16.316 -15.93,19.419 -6.214,2.8762 -15.926,4.2528 -22.144,3.1386 z"
         inkscape:connector-curvature="0"
         style="fill:#ffffff;stroke:none;stroke-width:4.37998343;stroke-miterlimit:4;stroke-dasharray:none;stroke-opacity:1"
         id="path6655" />
    </g>
    <flowRoot
       transform="translate(-155.71429,-52.857143)"
       style="font-style:normal;font-weight:normal;font-size:20px;line-height:125%;font-family:sans-serif;letter-spacing:0px;word-spacing:0px;fill:#ffffff;fill-opacity:1;stroke:none;stroke-width:1px;stroke-linecap:butt;stroke-linejoin:miter;stroke-opacity:1"
       id="flowRoot4258"
       xml:space="preserve"><flowRegion
         id="flowRegion4260"><rect
           style="font-size:20px;fill:#ffffff"
           y="424.50507"
           x="655"
           height="126.42857"
           width="81.428574"
           id="rect4262" /></flowRegion><flowPara
         id="flowPara4264">Time</flowPara><flowPara
         id="flowPara4266">spent</flowPara><flowPara
         id="flowPara4268">feeding</flowPara></flowRoot>    <flowRoot
       transform="translate(-287.14286,232.14286)"
       style="font-style:normal;font-weight:normal;font-size:20px;line-height:125%;font-family:sans-serif;letter-spacing:0px;word-spacing:0px;fill:#ffffff;fill-opacity:1;stroke:none;stroke-width:1px;stroke-linecap:butt;stroke-linejoin:miter;stroke-opacity:1"
       id="flowRoot4270"
       xml:space="preserve"><flowRegion
         id="flowRegion4272"><rect
           style="font-size:20px;fill:#ffffff"
           y="424.50507"
           x="655"
           height="85.714302"
           width="95.714302"
           id="rect4274" /></flowRegion><flowPara
         id="flowPara4276">Time</flowPara><flowPara
         id="flowPara4278">spent</flowPara><flowPara
         id="flowPara4280">in shade</flowPara></flowRoot>    <flowRoot
       xml:space="preserve"
       id="flowRoot4242"
       style="font-style:normal;font-weight:normal;font-size:20px;line-height:125%;font-family:sans-serif;letter-spacing:0px;word-spacing:0px;fill:#ffffff;fill-opacity:1;stroke:none;stroke-width:1px;stroke-linecap:butt;stroke-linejoin:miter;stroke-opacity:1"
       transform="translate(-207.14286,169.28571)"><flowRegion
         id="flowRegion4244"><rect
           id="rect4246"
           width="147.85715"
           height="72.142868"
           x="655"
           y="424.50507"
           style="font-size:20px;fill:#ffffff" /></flowRegion><flowPara
         id="flowPara4252">Energy spent in rapids</flowPara></flowRoot>  </g>
</svg>
